PathFileType	4	(X/Y/Z)	Run_400 05
DataRate	CameraRate	NumFrames	NumMarkers	Units	OrigDataRate	OrigDataStartFrame	OrigNumFrames
120	120	8	42	mm	120	224	128
Frame#	Time	LASI			RASI			LPSI			RPSI			RTH1			RTH2			RTH3			LTH1			LTH2			LTH3			RTB1			RTB2			RTB3			LTB1			LTB2			LTB3			RCAL			RTOE			RMT5			LCAL			LTOE			LMT5			LACR			RACR			CLAV			C7			RUA1			RUA2			RUA3			RLEL			RMEL			LUA1			LUA2			LUA3			LLEL			LMEL			RFAsuperior			RFAradius			RFAulna			LFAsuperior			LFAradius			LFAulna			
		X1	Y1	Z1	X2	Y2	Z2	X3	Y3	Z3	X4	Y4	Z4	X5	Y5	Z5	X6	Y6	Z6	X7	Y7	Z7	X8	Y8	Z8	X9	Y9	Z9	X10	Y10	Z10	X11	Y11	Z11	X12	Y12	Z12	X13	Y13	Z13	X14	Y14	Z14	X15	Y15	Z15	X16	Y16	Z16	X17	Y17	Z17	X18	Y18	Z18	X19	Y19	Z19	X20	Y20	Z20	X21	Y21	Z21	X22	Y22	Z22	X23	Y23	Z23	X24	Y24	Z24	X25	Y25	Z25	X26	Y26	Z26	X27	Y27	Z27	X28	Y28	Z28	X29	Y29	Z29	X30	Y30	Z30	X31	Y31	Z31	X32	Y32	Z32	X33	Y33	Z33	X34	Y34	Z34	X35	Y35	Z35	X36	Y36	Z36	X37	Y37	Z37	X38	Y38	Z38	X39	Y39	Z39	X40	Y40	Z40	X41	Y41	Z41	X42	Y42	Z42	

224	1.958333	991.321561	1040.412358	-438.580259	1002.376581	1016.621412	-181.334297	812.500257	1066.334818	-346.057084	817.540377	1054.261436	-264.326447	920.299773	836.592854	-149.772976	946.189784	725.55474	-163.720155	861.88326	630.193362	-206.33557	989.972154	844.52392	-495.5626	1100.334812	758.571882	-478.34542	1089.952832	633.784657	-453.739653	755.871952	462.007241	-289.112175	691.7623129999999	503.921118	-226.863885	639.357457	421.981695	-301.320298	1177.915834	420.350108	-375.928918	1143.683471	334.297468	-425.176354	1137.222851	224.228695	-351.849895	484.344009	662.160516	-323.938968	377.930811	454.062174	-310.015404	375.493124	538.323893	-233.063721	1003.81698	100.708	-339.868076	1237.49468	78.602716	-314.996624	1169.715697	55.23128	-408.31136	1009.354944	1478.665693	-510.323502	1047.248067	1508.927692	-170.738667	1074.890791	1437.256394	-309.043688	946.154979	1529.17664	-331.181515	1015.177665	1416.00309	-84.181782	995.613344	1328.938384	-77.52037	929.286295	1347.627158	-36.649439	887.399838	1224.09196	21.258743	836.344414	1219.479534	-48.306374	974.579736	1400.370665	-590.678892	972.007897	1327.93303	-591.826431	875.254817	1332.552868	-591.310602	841.391608	1181.342271	-664.160981	793.485263	1173.799048	-590.44125	983.194445	1188.081144	-17.686304	1095.51282	1155.066992	-156.309209	1097.421577	1104.037656	-103.03682	932.148111	1159.265025	-638.606645	1067.708332	1146.170273	-515.07201	1060.295706	1079.224494	-541.583207	
225	1.966667	988.532417	1038.257457	-440.148412	999.476942	1010.275683	-180.205314	809.501547	1060.513508	-343.126983	813.960504	1048.079214	-262.385228	923.293471	830.551107	-150.077541	954.4813820000001	721.23848	-163.310424	875.304159	621.694749	-206.308731	985.605692	841.619099	-496.219965	1095.483025	756.831791	-480.937668	1086.518052	631.274316	-456.642946	778.891553	458.294701	-286.984825	716.052912	501.240281	-224.331855	663.831903	419.125281	-298.67245	1166.080881	416.051681	-375.79735	1128.63469	332.018815	-425.524657	1113.956885	222.354368	-352.363525	510.113122	664.334347	-321.142846	402.656734	456.951419	-302.675968	402.777883	542.015719	-226.550805	971.954033	101.671419	-340.054049	1205.74377	77.061166	-315.080458	1136.884997	55.457609	-408.653018	1010.402062	1471.564141	-511.904556	1044.943455	1503.522586	-169.557041	1074.746166	1431.06119	-308.269213	946.902289	1524.782368	-332.432484	1011.931133	1407.722591	-84.31416400000001	988.980263	1320.952989	-79.89397200000001	923.255059	1340.827183	-38.335474	878.067855	1218.57417	17.696198	829.795521	1213.770322	-53.057373	979.886366	1389.052635	-591.341169	978.568707	1316.28552	-590.800665	882.191864	1319.071182	-595.775557	854.084054	1167.8621	-668.408954	803.967036	1159.066005	-595.469502	973.889742	1176.600266	-15.977082	1088.607171	1131.991633	-149.392342	1087.196919	1084.141932	-93.44942399999999	943.890264	1145.267095	-641.6769880000001	1077.124786	1132.902228	-513.746237	1071.243591	1066.526368	-541.641851	
226	1.975	986.674477	1036.580947	-442.19251	996.444673	1005.234904	-179.116363	807.37494	1055.840315	-340.591732	811.029118	1043.339069	-260.651433	926.439809	825.861034	-150.182858	964.373645	717.833952	-162.980168	890.235429	614.689474	-205.229658	980.933442	837.557116	-496.522188	1088.324565	753.095579	-482.724317	1078.132539	625.767924	-457.182743	803.368279	455.058614	-285.290198	741.622851	498.378046	-221.754144	689.583908	416.09	-295.979729	1151.747429	408.647354	-375.984375	1110.442159	326.224895	-425.303788	1089.00296	217.813155	-352.210988	535.04546	664.423826	-317.389496	429.27546	456.313608	-296.832339	431.038843	541.052415	-220.562249	940.1575319999999	102.4436	-339.80729	1174.151962	74.875854	-315.225777	1104.063851	55.026109	-408.940177	1011.401939	1465.079774	-513.163593	1042.66313	1498.85763	-168.915613	1074.272312	1425.876722	-307.624455	947.633224	1521.176156	-333.55775	1008.863505	1400.986975	-84.83621100000001	982.470996	1314.370785	-82.946243	917.479294	1334.858433	-40.559664	868.799485	1213.552817	13.529191	823.351413	1208.734985	-58.353644	985.143064	1378.956949	-591.4375680000001	985.760044	1305.681106	-589.06151	889.984672	1306.740544	-599.6887860000001	867.927687	1155.27793	-671.866864	815.276911	1145.254996	-599.913997	963.967128	1165.310848	-14.761559	1080.058848	1109.07104	-141.452052	1075.361447	1064.530371	-83.40416	956.727639	1132.505276	-642.9793989999999	1087.273251	1120.554814	-511.715724	1083.003692	1054.662281	-541.167411	
227	1.983333	985.408865	1034.895788	-444.195627	993.590607	1001.481732	-178.749636	805.794009	1052.64755	-339.182041	808.6804059999999	1039.936628	-259.798987	929.588157	822.135222	-150.417823	975.643522	715.471855	-162.715614	906.69344	609.103647	-203.316319	976.051408	832.766388	-496.814183	1079.736577	746.2804149999999	-483.529603	1065.875042	617.896468	-455.544027	828.987648	452.283829	-283.7503	768.0788230000001	495.438951	-219.1165	716.218932	412.980621	-293.227534	1135.07559	399.375205	-376.387987	1089.494651	318.356073	-424.498485	1062.342001	211.970057	-351.243041	558.825318	662.488033	-312.878824	457.461535	452.245487	-292.433924	459.652124	535.8987499999999	-215.191034	908.1039489999999	103.143599	-339.107296	1142.009684	72.88175	-315.236455	1071.07811	54.535296	-408.972016	1012.886426	1459.114512	-513.724887	1040.53817	1494.915346	-168.67659	1073.613679	1421.576403	-307.003476	948.0390650000001	1518.040699	-334.447817	1005.621033	1396.074538	-85.604139	976.26063	1309.395309	-86.32538700000001	911.978614	1330.000153	-43.17245	859.603549	1209.246792	8.938414	817.146777	1204.714208	-64.17784	990.0602249999999	1370.591828	-590.772562	993.555459	1296.738049	-586.949542	898.465292	1296.290892	-602.282336	882.845006	1144.11132	-674.159187	827.5673379999999	1132.755872	-603.877715	953.515212	1154.973964	-14.117121	1070.015065	1087.172451	-132.778771	1061.872387	1046.01588	-73.14515299999999	971.1149	1122.269441	-641.866911	1098.316549	1110.084763	-509.282975	1095.548659	1044.436102	-540.066136	
228	1.991667	984.22128	1032.972814	-445.765766	991.068168	998.803304	-179.506901	804.366411	1050.980995	-339.189754	806.676556	1037.60703	-260.12212	932.632251	819.055431	-150.938399	987.773701	714.5011909999999	-162.489925	924.521145	604.9713860000001	-200.983007	970.952803	828.193947	-497.320139	1070.777071	736.948043	-483.654474	1051.972561	609.378683	-453.192504	855.472949	450.121958	-282.132413	794.9643	492.474009	-216.501585	743.2782120000001	409.848364	-290.498027	1116.361911	390.121032	-376.839554	1066.662966	310.59225	-423.551657	1034.484182	206.615405	-350.087268	581.289263	658.4652139999999	-307.873321	486.80508	444.983207	-289.283708	488.008782	527.213327	-210.498219	875.693154	103.93815	-338.208363	1109.117124	71.649396	-315.136208	1037.848726	54.335059	-408.749924	1015.291642	1453.784502	-513.588799	1038.385547	1491.700741	-168.494185	1072.911034	1417.996662	-306.172482	947.928475	1515.177134	-335.173697	1001.673061	1392.832669	-86.298833	970.37487	1305.923787	-89.397965	906.527456	1326.403389	-45.841767	850.270806	1206.000833	4.233569	811.133823	1202.000452	-70.331672	994.589061	1363.95534	-589.388914	1001.591752	1289.738722	-584.842947	907.0973750000001	1287.976896	-602.904693	898.292597	1134.785074	-675.113897	840.603527	1121.897236	-607.3559780000001	942.63081	1146.518051	-13.875422	1058.718012	1067.279127	-123.912619	1046.745964	1029.575365	-63.058575	986.853396	1115.334705	-638.52887	1110.145615	1102.378203	-506.62447	1108.653626	1036.72821	-538.172826	
229	2	982.718295	1030.90172	-446.914451	988.892666	997.016066	-181.289764	802.874735	1050.603808	-340.371038	804.8532310000001	1036.141622	-261.42762	935.647329	816.66345	-151.671473	1000.235057	715.380375	-162.262268	943.342585	602.638901	-198.615649	965.552942	824.649984	-498.074349	1061.959997	727.084125	-483.573717	1038.232578	601.909129	-451.787628	882.58026	448.945229	-280.391689	821.877669	489.563662	-214.015046	770.361027	406.772293	-287.896536	1095.951816	382.239262	-377.173535	1042.825597	304.41989	-422.909285	1006.105474	202.730235	-349.408285	602.365504	652.214823	-302.63653	516.838025	434.819106	-287.174212	515.640119	515.548919	-206.5606	843.0866590000001	104.950063	-337.385396	1075.806403	71.01793000000001	-315.017134	1004.44963	54.394583	-408.455712	1018.68213	1449.438358	-513.043855	1035.848524	1489.225288	-167.99784	1072.234111	1415.07554	-304.900282	947.4036160000001	1512.653981	-335.899184	996.5971469999999	1390.882317	-86.600266	964.619197	1303.756706	-91.44060399999999	900.6544709999999	1324.165535	-48.257837	840.392298	1204.287831	-0.229544	804.680621	1200.876432	-76.34586	999.080684	1358.717401	-587.577353	1009.339699	1284.647623	-582.94712	915.2294879999999	1281.520801	-601.515112	913.377202	1127.522932	-674.904417	853.704463	1112.944423	-610.089611	931.221047	1140.735312	-13.694965	1046.303114	1050.579912	-115.334564	1030.084359	1016.195924	-53.620161	1002.82124	1111.473573	-634.109046	1122.30033	1098.088645	-503.724458	1121.960739	1032.277479	-535.314462	
230	2.008333	980.824923	1028.975947	-447.931694	987.04552	996.0803519999999	-183.637221	801.342058	1051.147717	-342.158085	803.225789	1035.495242	-263.225583	938.883166	815.354593	-152.416084	1012.671538	718.498505	-161.995341	962.6105240000001	602.657341	-196.405645	959.75875	822.3349009999999	-498.990844	1053.079083	718.832749	-483.635371	1025.138554	596.277484	-452.138633	910.0315399999999	449.215674	-278.641717	848.54928	486.879605	-211.715492	797.206285	403.919023	-285.481594	1074.161579	376.022421	-377.299471	1018.485931	300.052868	-422.687883	977.579606	200.212029	-349.342167	622.029936	643.579531	-297.40441	547.181236	422.01554	-285.971252	542.354236	501.166085	-203.489832	810.508152	106.21207	-336.723815	1042.497343	70.47556899999999	-314.906334	971.005149	54.53164	-408.252895	1022.721402	1446.51148	-512.361048	1032.714609	1487.471462	-166.961433	1071.597068	1412.8902	-303.094864	946.81597	1510.754282	-336.696302	990.333817	1389.908371	-86.36307499999999	958.579344	1302.798844	-91.972032	893.793637	1323.427889	-50.349477	829.5143870000001	1204.604518	-4.168106	796.569259	1201.665547	-81.584214	1004.135494	1354.668638	-585.654791	1016.425746	1281.335271	-581.18986	922.462214	1276.462083	-598.8885289999999	927.224601	1122.33801	-673.929288	866.14908	1106.050717	-611.653895	918.887929	1137.968187	-13.253384	1032.751438	1038.320027	-107.332428	1012.136844	1006.685211	-45.316348	1017.425807	1109.667162	-630.096149	1134.067044	1097.538216	-500.43491	1135.094312	1031.503906	-531.4508949999999	
231	2.016667	978.794209	1027.462021	-449.029685	985.544769	996.031116	-186.019129	799.961022	1052.276758	-343.984317	801.929548	1035.720447	-265.017802	942.6025969999999	815.616124	-152.977044	1024.877599	724.025075	-161.678599	981.748512	605.441985	-194.320102	953.511083	820.850366	-499.932689	1043.638426	713.1848210000001	-483.927325	1012.088368	592.264562	-453.930655	937.477548	451.236833	-277.045892	874.823699	484.666979	-209.620581	823.670765	401.527507	-283.271061	1051.212379	370.956992	-377.225506	993.654645	296.824241	-422.697098	948.832937	198.42623	-349.543488	640.300577	632.431835	-292.383137	577.75168	406.785306	-285.604106	568.335015	484.069681	-201.383117	778.040135	107.705169	-336.14535	1009.339437	69.70280099999999	-314.754932	937.5628390000001	54.634094	-408.149933	1026.908426	1445.331922	-511.563959	1029.121064	1486.395763	-165.360576	1071.014793	1411.607145	-300.834234	946.519898	1509.776551	-337.434735	983.214337	1389.820439	-85.656161	951.734028	1303.105278	-91.036382	885.534533	1324.414262	-52.333352	817.36242	1207.311793	-7.469068	785.714869	1204.691709	-85.569185	1010.189983	1352.017757	-583.719173	1022.825531	1279.783634	-579.30629	928.836067	1272.63398	-596.298184	939.354727	1119.113259	-672.524957	877.636334	1101.235287	-611.724886	905.079561	1138.055441	-12.412461	1018.057932	1031.346091	-100.151389	993.322844	1001.517558	-38.550971	1029.55724	1108.980942	-627.371518	1144.722738	1100.695388	-496.58116	1147.732841	1034.472672	-526.746559	
